# xmcd CD database file
#
# Track frame offsets:
#	165
#	29203
#	67395
#	84184
#	114827
#	127344
#	154252
#	196461
#	227009
#
# Disc length: 3371 seconds
#
# Revision: 0
# Processed by: cddbd v1.5.2PL0 Copyright (c) Steve Scherf et al.
# Submitted via: CDex 1.51
#
DISCID=800d2909
DTITLE=4 vor 2000 - 4 vor 2000
DYEAR=1996
DGENRE=Jazz
TTITLE0=Eigenes Stück
TTITLE1=Wood
TTITLE2=Now she is here
TTITLE3=Pinkl Inkl
TTITLE4=Kerry
TTITLE5=1 2 3 4
TTITLE6=Dominik
TTITLE7=Afro flower
TTITLE8=Duo
EXTD=YEAR: 1996
EXTT0=
EXTT1=
EXTT2=
EXTT3=
EXTT4=
EXTT5=
EXTT6=
EXTT7=
EXTT8=
PLAYORDER=
